<?xml version="1.0" standalone="no"?><svg xmlns:xlink="http://www.w3.org/1999/xlink" xmlns="http://www.w3.org/2000/svg" viewBox="0 0 200 200" preserveAspectRatio="xMaxYMax slice"><g transform="scale(0.42735042735042733)"><rect x="0" y="0" width="468" height="468" fill="#ffffff"/><circle cx="78" cy="78" r="78" fill="#db1083"/><rect x="156" y="0" width="156" height="156" fill="#ffffff"/><circle cx="195" cy="39" r="39" fill="#15a7e0"/><circle cx="273" cy="39" r="39" fill="#f7d221"/><circle cx="195" cy="117" r="39" fill="#15a7e0"/><circle cx="273" cy="117" r="39" fill="#f7d221"/><circle cx="390" cy="78" r="78" fill="#f7d221"/><rect x="0" y="156" width="156" height="156" fill="#ffffff"/><circle cx="39" cy="195" r="39" fill="#f7d221"/><circle cx="117" cy="195" r="39" fill="#db1083"/><circle cx="39" cy="273" r="39" fill="#f7d221"/><circle cx="117" cy="273" r="39" fill="#f7d221"/><rect x="156" y="156" width="156" height="156" fill="#ffffff"/><circle cx="195" cy="195" r="39" fill="#f7d221"/><circle cx="273" cy="195" r="39" fill="#db1083"/><circle cx="195" cy="273" r="39" fill="#15a7e0"/><circle cx="273" cy="273" r="39" fill="#15a7e0"/><circle cx="390" cy="234" r="78" fill="#db1083"/><rect x="0" y="312" width="156" height="156" fill="#ffffff"/><circle cx="39" cy="351" r="39" fill="#15a7e0"/><circle cx="117" cy="351" r="39" fill="#f7d221"/><circle cx="39" cy="429" r="39" fill="#15a7e0"/><circle cx="117" cy="429" r="39" fill="#15a7e0"/><rect x="156" y="312" width="156" height="156" fill="#ffffff"/><circle cx="195" cy="351" r="39" fill="#15a7e0"/><circle cx="273" cy="351" r="39" fill="#15a7e0"/><circle cx="195" cy="429" r="39" fill="#f7d221"/><circle cx="273" cy="429" r="39" fill="#db1083"/><circle cx="390" cy="390" r="78" fill="#db1083"/></g></svg>