<?xml version="1.0" standalone="no"?><svg xmlns:xlink="http://www.w3.org/1999/xlink" xmlns="http://www.w3.org/2000/svg" viewBox="0 0 1000 1000" preserveAspectRatio="xMaxYMax slice"><g transform="scale(2.1367521367521367)"><rect x="0" y="0" width="468" height="468" fill="#ffffff"/><circle cx="58.5" cy="58.5" r="58.5" fill="#db1083"/><circle cx="175.5" cy="58.5" r="58.5" fill="#f7d221"/><rect x="234" y="0" width="117" height="117" fill="#ffffff"/><circle cx="263.25" cy="29.25" r="29.25" fill="#15a7e0"/><circle cx="321.75" cy="29.25" r="29.25" fill="#db1083"/><circle cx="263.25" cy="87.75" r="29.25" fill="#15a7e0"/><circle cx="321.75" cy="87.75" r="29.25" fill="#15a7e0"/><circle cx="409.5" cy="58.5" r="58.5" fill="#f7d221"/><rect x="0" y="117" width="117" height="117" fill="#ffffff"/><circle cx="29.25" cy="146.25" r="29.25" fill="#f7d221"/><circle cx="87.75" cy="146.25" r="29.25" fill="#db1083"/><circle cx="29.25" cy="204.75" r="29.25" fill="#f7d221"/><circle cx="87.75" cy="204.75" r="29.25" fill="#15a7e0"/><circle cx="175.5" cy="175.5" r="58.5" fill="#f7d221"/><rect x="234" y="117" width="117" height="117" fill="#ffffff"/><circle cx="263.25" cy="146.25" r="29.25" fill="#15a7e0"/><circle cx="321.75" cy="146.25" r="29.25" fill="#15a7e0"/><circle cx="263.25" cy="204.75" r="29.25" fill="#15a7e0"/><circle cx="321.75" cy="204.75" r="29.25" fill="#db1083"/><circle cx="409.5" cy="175.5" r="58.5" fill="#db1083"/><circle cx="58.5" cy="292.5" r="58.5" fill="#15a7e0"/><rect x="117" y="234" width="117" height="117" fill="#ffffff"/><circle cx="146.25" cy="263.25" r="29.25" fill="#f7d221"/><circle cx="204.75" cy="263.25" r="29.25" fill="#15a7e0"/><circle cx="146.25" cy="321.75" r="29.25" fill="#db1083"/><circle cx="204.75" cy="321.75" r="29.25" fill="#db1083"/><circle cx="292.5" cy="292.5" r="58.5" fill="#15a7e0"/><rect x="351" y="234" width="117" height="117" fill="#ffffff"/><circle cx="380.25" cy="263.25" r="29.25" fill="#f7d221"/><circle cx="438.75" cy="263.25" r="29.25" fill="#15a7e0"/><circle cx="380.25" cy="321.75" r="29.25" fill="#15a7e0"/><circle cx="438.75" cy="321.75" r="29.25" fill="#15a7e0"/><circle cx="58.5" cy="409.5" r="58.5" fill="#15a7e0"/><rect x="117" y="351" width="117" height="117" fill="#ffffff"/><circle cx="146.25" cy="380.25" r="29.25" fill="#15a7e0"/><circle cx="204.75" cy="380.25" r="29.25" fill="#db1083"/><circle cx="146.25" cy="438.75" r="29.25" fill="#f7d221"/><circle cx="204.75" cy="438.75" r="29.25" fill="#db1083"/><rect x="234" y="351" width="117" height="117" fill="#ffffff"/><circle cx="263.25" cy="380.25" r="29.25" fill="#db1083"/><circle cx="321.75" cy="380.25" r="29.25" fill="#db1083"/><circle cx="263.25" cy="438.75" r="29.25" fill="#db1083"/><circle cx="321.75" cy="438.75" r="29.25" fill="#db1083"/><circle cx="409.5" cy="409.5" r="58.5" fill="#15a7e0"/></g></svg>